<svg xmlns="http://www.w3.org/2000/svg" viewBox="0 0 512 512" role="img" aria-label="Tracker de Stickers FWC 2026">
  <rect width="512" height="512" rx="96" fill="#075985"/>
  <circle cx="256" cy="232" r="116" fill="#f8fafc"/>
  <path fill="#0f172a" d="m256 116 37 76-37 35-37-35 37-76Zm-107 94 84 13 14 49-45 27-53-89Zm214 0-53 89-45-27 14-49 84-13Zm-173 132 66-40 66 40-20 72h-92l-20-72Z"/>
  <path fill="#22c55e" d="M94 383c42 34 96 54 162 54s120-20 162-54v55c-43 29-97 45-162 45s-119-16-162-45v-55Z"/>
  <text x="256" y="468" fill="#f8fafc" font-family="Arial, sans-serif" font-size="46" font-weight="700" text-anchor="middle">2026</text>
</svg>
